HIERARCHY
ROOT HipCenter
{
    OFFSET 0.0 0.0 -0.0
    CHANNELS 6 Xposition Yposition Zposition Zrotation Xrotation Yrotation
    JOINT Spine
    {
        OFFSET 0.0 29.451528549194336 0.0
        CHANNELS 3 Zrotation Xrotation Yrotation
        JOINT ShoulderCenter
        {
            OFFSET 0.0 21.694473266601562 0.0
            CHANNELS 3 Zrotation Xrotation Yrotation
            JOINT LeftShoulder
            {
                OFFSET 16.088502883911133 0.0 0.0
                CHANNELS 3 Zrotation Xrotation Yrotation
                JOINT LeftElbow
                {
                    OFFSET 23.002737045288086 0.0 0.0
                    CHANNELS 3 Zrotation Xrotation Yrotation
                    JOINT LeftWrist
                    {
                        OFFSET 20.237377166748047 0.0 0.0
                        CHANNELS 3 Zrotation Xrotation Yrotation
                        JOINT LeftHand
                        {
                            OFFSET 4.022860050201416 0.0 0.0
                            CHANNELS 3 Zrotation Xrotation Yrotation
                            End Site
                            {
                                OFFSET 1.6091442108154297 0.0 0.0
                            }
                        }
                    }
                }
            }
            JOINT RightShoulder
            {
                OFFSET -16.088502883911133 0.0 0.0
                CHANNELS 3 Zrotation Xrotation Yrotation
                JOINT RightElbow
                {
                    OFFSET -23.002737045288086 0.0 0.0
                    CHANNELS 3 Zrotation Xrotation Yrotation
                    JOINT RightWrist
                    {
                        OFFSET -20.237377166748047 0.0 0.0
                        CHANNELS 3 Zrotation Xrotation Yrotation
                        JOINT RightHand
                        {
                            OFFSET -4.022860050201416 0.0 0.0
                            CHANNELS 3 Zrotation Xrotation Yrotation
                            End Site
                            {
                                OFFSET -1.6091442108154297 0.0 0.0
                            }
                        }
                    }
                }
            }
            End Site
            {
                OFFSET 0.0 8.677789688110352 0.0
            }
        }
    }
    JOINT LeftHip
    {
        OFFSET 7.713931083679199 0.0 0.0
        CHANNELS 3 Zrotation Xrotation Yrotation
        JOINT LeftKnee
        {
            OFFSET 0.0 -31.9301815032959 0.0
            CHANNELS 3 Zrotation Xrotation Yrotation
            JOINT LeftAnkle
            {
                OFFSET 0.0 -29.389598846435547 0.0
                CHANNELS 3 Zrotation Xrotation Yrotation
                JOINT LeftFoot
                {
                    OFFSET 0.0 -11.388025283813477 0.0
                    CHANNELS 3 Zrotation Xrotation Yrotation
                    End Site
                    {
                        OFFSET 0.0 0.0 4.555210113525391
                    }
                }
            }
        }
    }
    JOINT RightHip
    {
        OFFSET -7.713931083679199 0.0 0.0
        CHANNELS 3 Zrotation Xrotation Yrotation
        JOINT RightKnee
        {
            OFFSET 0.0 -31.9301815032959 0.0
            CHANNELS 3 Zrotation Xrotation Yrotation
            JOINT RightAnkle
            {
                OFFSET 0.0 -29.389598846435547 0.0
                CHANNELS 3 Zrotation Xrotation Yrotation
                JOINT RightFoot
                {
                    OFFSET 0.0 -11.388025283813477 0.0
                    CHANNELS 3 Zrotation Xrotation Yrotation
                    End Site
                    {
                        OFFSET 0.0 0.0 4.555210113525391
                    }
                }
            }
        }
    }
}
MOTION
Frames: 9
Frame Time: 0.03333333333333333
-2.59689998626709 -10.36769962310791 -258.1653137207031 -0.3912532825358946 1.971496621244632 177.3200194830884 0.11601744431720687 -1.8853023873279915 -0.0010904569505217716 -2.7413701388648393e-08 1.9094981952831338e-07 0.48498728968714233 -75.97688530281208 -36.46607156477776 7.95289057020018 -3.1452549462441945e-06 2.1743568947492244e-06 15.634132480248926 179.99999154237258 -58.09652237513224 -150.69486127066497 0.0 3.975693351829396e-16 0.0 75.20665442485642 -27.428269106142853 -3.940497508048135 1.2471031125911258e-06 4.603742624682643e-06 -20.613236253273342 3.86930022205282e-06 -71.63767471495036 -11.193558716295582 0.0 0.0 0.0 5.545098311075017 -10.125406815043734 29.173018795527277 0.6774840453665243 8.207200877533921 0.23116491763442132 35.05418819823442 42.473184534804325 -24.042578896275668 0.0 0.0 -3.1805546814635168e-15 -4.285432219028689 -10.585404281369057 -27.541063550463065 -3.103229903719671 8.194462548819493 0.021682805007416622 -38.60803604339157 32.958698423925895 23.59415438076102 2.385416011097637e-15 3.310429723537619e-32 1.5902773407317582e-15
-2.607800006866455 -10.366000175476074 -258.20050048828125 -0.4007573878158668 1.944271101385986 177.50948186680313 0.11138584101968321 -1.8807515593569701 0.0013751009068274879 -6.563833220086013e-08 3.591459456030743e-07 0.40029332754426117 -76.19423575097036 -35.94702177970377 7.890722988009551 2.509736674165926e-06 5.227229534914338e-07 15.551702568738953 179.99999849582167 -56.375343548096595 -145.8293251585771 -6.361109362927033e-15 -3.1805546814635164e-15 -1.7655625192200634e-31 74.85241321704046 -24.567510266560273 -3.741682820093276 -3.7740192664750113e-07 -6.807708911259143e-07 -23.310386409304872 -2.3693622109066154e-06 -1.5390613384294627 -13.147738432018985 -2.484808344893373e-16 3.879409832270647e-33 -1.7890620083232284e-15 5.4875328500852065 -10.270186217830215 29.073307946527496 0.7372810244314211 8.277633586221219 0.22886571539749065 34.80600147039134 42.03179960700257 -23.686705115455297 0.0 0.0 0.0 -4.3613622448659495 -10.531320856137954 -27.53904540313769 -3.046395323999181 8.12394414219211 0.0159502355037339 -37.834407893273784 32.971899422748194 22.995136859940597 7.951386703658791e-16 -6.3611093629270335e-15 -1.5902773407317584e-15
-2.611999988555908 -10.390199661254883 -258.2292175292969 -0.3931467947748484 1.953465922560288 177.60857717773126 0.10789250941687156 -1.8763721548850523 0.0029845330466391497 -5.039900099557507e-08 4.176515001978299e-08 0.36802743996337994 -76.116927434161 -36.41894475676718 7.92799519409548 -2.0958275837316236e-06 1.4234002154750439e-06 15.453504800900847 179.99999447749002 -64.74225641254317 -152.70617815870867 0.0 0.0 0.0 73.9528875458816 -11.181915146157088 -3.8350224743515704 3.909166028836199e-06 -1.214013463150096e-06 -32.20163801889004 -1.2660556943970628e-06 -67.77900329265321 -16.297098874145167 3.1805546814635164e-15 6.3611093629270335e-15 6.3611093629270335e-15 5.463049331103473 -10.243126403033564 29.005551480265066 0.7483898712529335 8.264612673262992 0.21735669231979868 34.953819678073444 41.96026277571755 -23.837679894850382 1.5902773407317588e-15 6.361109362927035e-15 -7.951386703658796e-16 -4.381801110447548 -10.43038004650724 -27.515559427067174 -2.9741251203363634 8.03782483497272 0.010321499973773933 -37.7789975814263 33.08190961502501 22.986190627452235 3.975693351829396e-15 8.276074308844047e-32 2.3854160110976376e-15
-2.6303999423980713 -10.399200439453125 -258.26629638671875 -0.40526061403549746 1.9723069443513999 177.72706650402145 0.09836737172862035 -1.8697116759757444 0.00441869081709407 -2.8192873264656452e-08 -3.758229598278226e-08 0.34914529249232495 -75.35130726511757 -41.06206931088236 8.32455204080361 4.550087294847601e-06 -1.1224066725934854e-06 14.821808540282687 179.99999221755314 -74.10619450440973 -159.8700648830144 0.0 -4.770832022195275e-15 0.0 72.27504814965634 -6.0180511463339235 -4.099087944792279 -2.5930213708099225e-06 -3.132060445645174e-07 -39.950991037344025 -9.943716864052734e-06 -68.4661123349428 -15.078899362157337 0.0 0.0 3.1805546814635176e-15 5.3977674843327 -10.295749490711852 28.930493926414325 0.8514983911352576 8.39355132499521 0.20984471367951996 35.538303586855726 41.79365954219345 -24.299141309373713 1.5902773407317584e-15 0.0 0.0 -4.447942683403159 -10.385443681902107 -27.507722497798788 -3.007523935724176 8.053349622192759 0.018160724901864066 -37.295003218271155 33.13971873408552 22.700714369576197 3.1805546814635168e-15 4.4139062980501586e-32 1.5902773407317584e-15
-2.6427998542785645 -10.432299613952637 -258.1991882324219 -0.40233737165327865 1.997367619961761 177.19692872421365 0.1140530051579958 -1.885235973369395 0.0017277802157432316 -3.960470467441287e-09 -3.2892283851616894e-07 0.5798590065668525 -75.01545282853007 -40.851921345822376 8.451441420708376 -2.6795493165618116e-06 6.832363039000603e-07 15.919448585303593 179.99997345581176 -85.81242625401205 -166.27189274952056 8.827812596100317e-32 -3.1805546814635168e-15 3.1805546814635168e-15 69.75780290876945 0.35828154692655584 -6.542580983021706 1.2645925676049592e-06 -1.368817413500557e-06 -49.47546760367672 -2.2809953027712233e-05 -80.45400922591661 -15.82513402617695 3.1805546814635164e-15 -3.1805546814635168e-15 -7.156248033292914e-15 5.422774584485182 -10.163671755280456 29.10814903775555 0.9727346953519898 8.553669817518983 0.2051032602254479 35.45315665970843 42.216837749769574 -24.45421552553753 -8.827812596100317e-32 -6.361109362927033e-15 -1.5902773407317582e-15 -4.356762832263039 -10.41746475777388 -27.45086315865657 -3.300464040820494 8.180849041823771 0.05935175807756884 -36.150622655676216 32.266145449383195 21.600910402195954 0.0 0.0 -1.5902773407317584e-15
-2.6608998775482178 -10.460599899291992 -258.2582092285156 -0.4080550171526621 1.9941315556346944 177.3808003957048 0.10405377581546826 -1.8743930535167441 0.0040540183137505615 6.284151841344906e-08 -4.565974235414918e-07 0.5027144070884412 -75.11135523461621 -40.12444408095333 8.36164672833788 -3.7384848336065525e-06 -3.2084722308686587e-06 15.921391339482172 179.9999981843491 -60.03146484838433 -155.9274863271974 0.0 0.0 0.0 68.60817243599635 6.666184202344273 -8.006969083066679 6.616355354186582e-06 -8.399543170364046e-07 -62.97085764946361 179.99999677555556 -63.58887198253674 163.29725499239706 -1.5448672043175555e-31 -3.1805546814635176e-15 -5.565970692561156e-15 5.327797486838336 -10.162747833812318 28.992814411661836 1.0445023231191584 8.479730223270211 0.18903852238035904 35.32681161195927 41.955882049642376 -24.32067666540914 -7.951386703658792e-16 0.0 0.0 -4.463765994169537 -10.382588809077992 -27.43375297927014 -3.0860898595148205 8.216968944079891 0.03609703645499971 -36.62416396122231 32.60959458223275 22.010855234823907 7.951386703658791e-16 -3.310429723537619e-32 -4.770832022195274e-15
-2.678800106048584 -10.490900039672852 -258.3800048828125 -0.42700122255842166 1.9586204946394 177.94480560615267 0.08741679265747941 -1.8585535479975122 0.0001735313647023343 5.768138242702138e-09 3.4157601528209984e-07 0.1768322476677875 -75.01748008614062 -40.150407626808494 8.293426172029351 -2.2015710369566845e-06 3.821306437198677e-06 16.10771160303666 179.99999917008026 -56.2342440621537 -157.7154459979854 0.0 -3.975693351829395e-16 0.0 68.60456853819099 7.95708520820891 -10.036992396122898 -4.1054937233280457e-07 2.7477367916732787e-06 -64.65095092528229 -2.131168718834277e-06 13.216560052123333 -33.51573391872851 0.0 0.0 3.1805546814635168e-15 5.138280212846778 -10.189310393830498 28.729950158848432 1.1528763931738868 8.291433848847646 0.19603322881750287 35.85409846131255 40.97772121007842 -24.268222695071305 -7.951386703658792e-16 -6.361109362927035e-15 1.5902773407317588e-15 -4.663464535875927 -10.33231438840035 -27.511062472792464 -2.6871991398357014 8.076123632931807 0.021323915385609637 -36.6656674630833 33.07801080283796 22.221632186854333 7.951386703658791e-16 -6.3611093629270335e-15 -1.5902773407317584e-15
-2.723599910736084 -10.5201997756958 -258.45599365234375 -0.44584674144987263 1.8177578186765118 178.32437332236796 0.08823819348093377 -1.8056012349750694 -0.00019610424043199615 3.349565797286128e-08 3.509247314316383e-08 0.08917127180933711 -75.0982787433169 -40.450343832028224 8.129722089913084 3.893023469575653e-06 3.4216255511604975e-06 16.256579063155886 -179.99999930905733 -60.01919396621393 -157.1090022433147 -6.3611093629270335e-15 8.827812596100317e-32 -1.5902773407317584e-15 67.64085998504139 12.50052706923903 -15.874147962606923 2.5050630719897325e-06 -6.435057686594154e-07 -77.24770447285648 -1.4731468696894014e-06 26.71068938649181 -15.722595865263319 6.3611093629270335e-15 0.0 0.0 4.771311602716069 -10.484736922209182 28.538094046328624 1.788432378690384 8.08475919397567 0.15419018567747247 35.884539245508265 41.59317609629554 -24.76696761106466 -7.951386703658792e-16 -1.6552148617688095e-32 2.3854160110976376e-15 -4.81569235041271 -10.465693510652416 -27.579167332805053 -2.6977001555168805 8.292175685486418 0.042335501189342956 -36.52823624915899 33.33778508850787 22.362928098833894 3.1805546814635168e-15 0.0 0.0
-2.748500108718872 -10.552200317382812 -258.48687744140625 -0.4694378736202287 1.7689311117029305 178.27464438662318 0.09012447489557138 -1.7851173441282777 0.0028642570644892983 -9.627497914248191e-08 1.2221923349842006e-07 0.23172918166245832 -74.99409010550636 -40.91449342212391 8.104915317613639 -2.9727468663165403e-06 -1.3049510246890723e-07 16.423351341067693 179.99999322381976 -56.99715602537877 -160.42013795776276 0.0 0.0 0.0 65.41394731520353 17.4198925852006 -26.2987645914864 -1.8459873156503936e-06 3.5105155335673863e-06 -81.84691301440908 4.912050844485248e-06 -24.1630038562483 -15.6210056059382 2.0966054915738252e-31 -3.1805546814635168e-15 7.553817368475852e-15 4.710955791382339 -10.4924501284933 28.506110982698488 1.770758531852936 8.036489523605539 0.14708637479849543 36.21035636010751 41.620871880565495 -25.079490545917494 7.951386703658792e-16 -6.3611093629270335e-15 -7.951386703658792e-16 -4.868290393504747 -10.55422480981983 -27.522055316411205 -2.7165193499961524 8.46526220668605 0.03970569453283925 -36.36380000844942 33.00207846441742 22.04591007452403 3.1805546814635168e-15 -4.4139062980501586e-32 -1.5902773407317584e-15
